<svg xmlns="http://www.w3.org/2000/svg" version="1.1" xmlns:xlink="http://www.w3.org/1999/xlink" width="32" height="32" x="0" y="0" viewBox="0 0 512 512" style="enable-background:new 0 0 512 512" xml:space="preserve" class=""><g><linearGradient id="a" x1="256" x2="256" y1="512" y2="0" gradientUnits="userSpaceOnUse"><stop stop-opacity="1" stop-color="#009efb" offset="0"></stop><stop stop-opacity="1" stop-color="#5d3c64" offset="1"></stop></linearGradient><path fill="url(#a)" fill-rule="evenodd" d="M256 512c141.385 0 256-114.615 256-256S397.385 0 256 0 0 114.615 0 256s114.615 256 256 256zm0-437.334c29.672 0 53.949 24.277 53.949 53.949v136.538c0 29.672-24.277 53.949-53.949 53.949s-53.949-24.277-53.949-53.949V128.615c0-29.672 24.277-53.949 53.949-53.949zm17.066 362.667c0 9.425-7.641 17.066-17.067 17.066-9.425 0-17.066-7.641-17.066-17.066V388.45c-27.454-3.802-52.114-16.635-70.854-35.376-22.552-22.552-36.55-53.673-36.55-87.921v-32.196c0-9.426 7.641-17.067 17.067-17.067s17.067 7.641 17.067 17.067v32.196c0 24.825 10.168 47.406 26.55 63.788s38.963 26.55 63.787 26.55c24.825 0 47.407-10.168 63.788-26.55s26.55-38.963 26.55-63.788v-32.196c0-9.426 7.641-17.067 17.067-17.067s17.066 7.641 17.066 17.067v32.196c0 34.248-13.998 65.369-36.55 87.921-18.741 18.741-43.402 31.573-70.855 35.376z" clip-rule="evenodd" opacity="1" data-original="url(#a)" class=""></path></g></svg>